# xmcd
#
# Track frame offsets:
#	187
#	22305
#	38485
#	58870
#	75207
#	91782
#	106520
#	128827
#	148342
#	161512
#	176805
#	194775
#	213375
#	233442
#	252142
#	272232
#	289690
#
# Disc length: 4128 seconds
#
# Revision: 6
# Processed by: cddbd v1.5PL3 Copyright (c) Steve Scherf et al.
# Submitted via: CDex 1.50Beta5
#
DISCID=eb101e11
DTITLE=Various Artist - Mega Hits 70's-80's　No.1 History
DYEAR=1995
DGENRE=Blues
TTITLE0=Whitney Houston/I Wanna Dance With Somebody
TTITLE1=Rick Astley/Never Gonna Give You Up
TTITLE2=Starship/Nothing's Gonna Stop Us Now
TTITLE3=Daryl Hall and John Oates/Private Eyes
TTITLE4=Eurythmics/Sweet Dreams
TTITLE5=Rick Springfield/Jessie's Girl
TTITLE6=Expos/Seasons Change
TTITLE7=Air Supply/The One That You Love
TTITLE8=Bay City Rollers/Saturday Night
TTITLE9=Nilson/Without You
TTITLE10=Barry Manilow/I Write THe SOngs
TTITLE11=Ray Parker Jr./Ghostbusters
TTITLE12=Milli Vanilli/Girl I'm Gonna Miss You
TTITLE13=Billy Ocean/Caribbean Queen
TTITLE14=Mr. Mister/Kyrie
TTITLE15=Daryl Hall and John Oates/Kiss On My List
TTITLE16=Taylor Dayne/Love Will Lead You Back
EXTD=
EXTT0=
EXTT1=
EXTT2=
EXTT3=
EXTT4=
EXTT5=
EXTT6=
EXTT7=
EXTT8=
EXTT9=
EXTT10=
EXTT11=
EXTT12=
EXTT13=
EXTT14=
EXTT15=
EXTT16=
PLAYORDER=
